<svg xmlns="http://www.w3.org/2000/svg" viewBox="0 0 936.59 252"><g id="Layer_2" data-name="Layer 2"><g id="Layer_1-2" data-name="Layer 1"><path d="M160.3,248.5l-50.05-71.75a85.29,85.29,0,0,1-9.45.35H45.5v71.4H0V3.5H100.8c64.4,0,104.3,32.9,104.3,87.15,0,37.1-18.9,64.4-52.15,77.35l56.35,80.5ZM98.7,42H45.5v97.65H98.7c39.9,0,60.55-18.2,60.55-49S138.6,42,98.7,42Z"/><path d="M235.2,222.6,251,187.25C270.55,203,301.7,214.2,331.8,214.2c38.15,0,54.25-13.65,54.25-31.85,0-52.85-145.6-18.2-145.6-109.2C240.45,33.6,272,0,339.15,0c29.4,0,60.2,7.7,81.55,21.7L406.35,57.05C384.3,44.1,360.15,37.8,338.8,37.8c-37.8,0-53.2,14.7-53.2,33.25,0,52.15,145.25,18.2,145.25,108.15,0,39.2-31.85,72.8-99.05,72.8C293.65,252,255.5,240.1,235.2,222.6Z"/><path d="M455.34,222.6l15.75-35.35C490.69,203,521.84,214.2,552,214.2c38.15,0,54.25-13.65,54.25-31.85,0-52.85-145.61-18.2-145.61-109.2C460.59,33.6,492.09,0,559.3,0c29.4,0,60.2,7.7,81.55,21.7L626.5,57.05C604.45,44.1,580.3,37.8,559,37.8c-37.8,0-53.2,14.7-53.2,33.25C505.75,123.2,651,89.25,651,179.2c0,39.2-31.85,72.8-99,72.8C513.79,252,475.64,240.1,455.34,222.6Z"/><path d="M850.85,175c0,41.3-31.15,77-97,77-34.65,0-69.3-10.5-92-28.35l19.6-35.35c17.5,14.7,44.1,24.15,71.75,24.15,32.55,0,51.8-14.35,51.8-37.1,0-22-16.1-36.4-53.2-36.4H729.4V107.8l55.65-66.15H673.75V3.5h167V34l-59.5,70.7C827.4,110.6,850.85,138.25,850.85,175Z"/><path d="M879.19,88.55c0-17.5,12.95-29,28.7-29s28.7,11.55,28.7,29.05c0,16.8-13,29.05-28.7,29.05S879.19,105.35,879.19,88.55Zm0,133.35c0-17.5,12.95-29.05,28.7-29.05s28.7,11.55,28.7,29.05c0,16.8-13,29-28.7,29S879.19,238.7,879.19,221.9Z"/></g></g></svg>